# xmcd CD database file
#
# Track frame offsets:
#	150
#	15764
#	30555
#	39315
#	53589
#	69737
#	81008
#	91857
#	101823
#	118976
#	134313
#	150481
#	161255
#	176650
#
# Disc length: 2584 seconds
#
# Revision: 0
# Processed by: cddbd v1.5.2PL0 Copyright (c) Steve Scherf et al.
# Submitted via: CDex 1.51
#
DISCID=a10a160e
DTITLE=Harry James - Jazz Giants - CD5
DYEAR=2006
DGENRE=Jazz
TTITLE0=It's Been A Long Long Time
TTITLE1=Carnival
TTITLE2=Sleepy Time Gal
TTITLE3=You Made Me Love You
TTITLE4=The Man I Love
TTITLE5=Ciribiribin
TTITLE6=I Cover The Waterfront
TTITLE7=Saber Dancer
TTITLE8=Things Ain't What They Used To Be
TTITLE9=St Louis Blues
TTITLE10=I Got It Bad
TTITLE11=Trumpet Blues
TTITLE12=You Turned The Tables On Me
TTITLE13=Stardust
EXTD=YEAR: 2006
EXTT0=
EXTT1=
EXTT2=
EXTT3=
EXTT4=
EXTT5=
EXTT6=
EXTT7=
EXTT8=
EXTT9=
EXTT10=
EXTT11=
EXTT12=
EXTT13=
PLAYORDER=
